<svg xmlns="http://www.w3.org/2000/svg" width="19.963" height="25.036" viewBox="0 0 19.963 25.036">
  <path id="logo" d="M6.365,25.036c-1.51,0-2.653-1.5-3.786-3.17A15.957,15.957,0,0,1,.2,15.831a10.092,10.092,0,0,1,.825-6.579A6.319,6.319,0,0,1,3.184,6.981,5.692,5.692,0,0,1,6.1,6.113h.062a6.722,6.722,0,0,1,2.467.644,4.587,4.587,0,0,0,1.519.446,4.675,4.675,0,0,0,1.468-.439,7.8,7.8,0,0,1,2.835-.727,3.811,3.811,0,0,1,.39.02,5.648,5.648,0,0,1,4.482,2.479l-.019.012A5.627,5.627,0,0,0,16.674,13.3a5.5,5.5,0,0,0,3.283,5.06l.006,0-.008.025a13.894,13.894,0,0,1-1.69,3.536C17.31,23.354,16.227,24.97,14.514,25H14.44a4.152,4.152,0,0,1-1.824-.469,4.814,4.814,0,0,0-2.149-.526,5.116,5.116,0,0,0-2.255.543,4.578,4.578,0,0,1-1.763.483ZM10.2,5.78c-.083,0-.167,0-.248-.01a5.289,5.289,0,0,1,1.3-3.874A5.443,5.443,0,0,1,14.862,0a5.61,5.61,0,0,1-1.276,4A4.576,4.576,0,0,1,10.2,5.78Z" fill="#f6f6f9"/>
</svg>
